<svg width="31" height="30" viewBox="0 0 31 30" fill="none" xmlns="http://www.w3.org/2000/svg">
<path d="M26.0407 10.2083C26.194 10.2225 26.3473 10.2438 26.5 10.2722L24.0931 14.441C23.6232 15.2548 23.9021 16.2953 24.7158 16.7651C25.5296 17.235 26.5701 16.9562 27.04 16.1424L29.4468 11.9736C30.8133 13.5717 31.0981 15.9192 29.9868 17.8437C28.9605 19.6216 27.026 20.5484 25.1075 20.3764L20.6872 28.0327C20.0999 29.0499 18.7991 29.3984 17.7819 28.8111C16.8764 28.2883 16.5009 27.2003 16.8436 26.25C16.8857 26.1327 16.939 26.0177 17.0034 25.906L21.4156 18.264C20.2867 16.6855 20.1126 14.5297 21.1461 12.7396C22.0073 11.2481 23.5075 10.3556 25.1013 10.2083C25.4122 10.1796 25.7266 10.1792 26.0407 10.2083ZM21.1458 0C22.4297 0 23.6026 0.473941 24.4996 1.25639L24.718 1.45833H24.7917V1.53199C25.6244 2.38178 26.1624 3.52147 26.2402 4.78563L26.25 5.10417V8.76362C25.382 8.67323 24.5094 8.75828 23.684 9.00517L23.3333 9.12084V7.29167H2.91667V21.1458C2.91667 22.2829 3.78421 23.2173 4.89349 23.3233L5.10417 23.3333H16.805L15.7405 25.1768C15.592 25.4342 15.479 25.7022 15.3999 25.9753L15.3322 26.25H5.10417C2.37917 26.25 0.15294 24.1146 0.0075526 21.4259L0 21.1458V5.10417C0 3.82041 0.473941 2.64734 1.25639 1.75038L1.45833 1.53199V1.45833H1.53199C2.38178 0.625616 3.52147 0.0876196 4.78563 0.00977819L5.10417 0H21.1458ZM14.8032 10.4677C15.0565 10.2147 15.4495 10.1869 15.7335 10.3839L15.8344 10.4684L19.1717 13.8101C18.9638 14.7059 18.951 15.6235 19.1171 16.5044L19.1992 16.8795L15.8344 20.2488C15.5499 20.5338 15.0882 20.5341 14.8032 20.2495C14.55 19.9966 14.5216 19.6037 14.7182 19.3194L14.8025 19.2184L18.657 15.3586L14.8025 11.4989C14.518 11.2139 14.5183 10.7522 14.8032 10.4677ZM11.4583 10.4683C11.7429 10.7532 11.7426 11.2149 11.4577 11.4995L7.59427 15.3586L11.4577 19.2178C11.7426 19.5023 11.7429 19.964 11.4583 20.249C11.1737 20.5338 10.712 20.5341 10.4271 20.2495L6.0472 15.8745C5.91027 15.7378 5.83333 15.5521 5.83333 15.3586C5.83333 15.1651 5.91026 14.9796 6.04718 14.8428L10.4271 10.4677C10.712 10.1831 11.1737 10.1834 11.4583 10.4683Z" fill="#1981EA"/>
</svg>
